<svg xmlns="http://www.w3.org/2000/svg" width="512" height="512" viewBox="0 0 512 512" version="1.1">
	<path d="M 225.919 14.953 C 210.203 17.810, 192.991 24.614, 179.976 33.116 C 172.329 38.112, 155 53.212, 155 54.880 C 155 55.674, 171.334 54.530, 172.782 53.635 C 173.327 53.298, 174.326 53.688, 175.002 54.502 C 176.047 55.762, 177.352 54.935, 183.762 48.949 C 202.537 31.415, 221.947 25.069, 253 26.310 C 279.773 27.381, 301.305 35.771, 315.683 50.735 C 320.683 55.938, 321.135 56.188, 322.811 54.671 C 324.204 53.410, 325.366 53.248, 328.051 53.937 C 332.604 55.106, 342 55.875, 342 55.078 C 342 54.733, 338.738 51.236, 334.750 47.308 C 320.933 33.696, 299.597 22.173, 279.274 17.348 C 270.123 15.175, 265.638 14.740, 249.500 14.455 C 239.050 14.271, 228.439 14.495, 225.919 14.953 M 139.710 73.750 C 127.465 90.256, 119.340 105.762, 111.023 128.500 C 103.901 147.967, 99.317 154.688, 73.238 183.887 C 67.007 190.864, 63.337 195.737, 63.895 196.295 C 64.400 196.800, 68.680 197.053, 73.407 196.856 C 78.133 196.660, 82 196.579, 82 196.676 C 82 196.772, 80.184 200.597, 77.965 205.176 C 73.125 215.160, 69.609 226.350, 67.533 238.381 C 65.911 247.779, 65.586 264.808, 66.902 271.500 L 67.688 275.500 68.906 272.521 C 69.576 270.883, 71.932 263.458, 74.141 256.021 C 86.209 215.391, 90.506 204.623, 102.861 184.051 C 105.652 179.404, 107.776 175.443, 107.581 175.247 C 107.385 175.052, 105.712 175.824, 103.863 176.963 C 100.828 178.832, 89.112 183, 86.895 183 C 85.017 183, 86.263 180.981, 94.665 170.405 C 105.143 157.218, 109.998 149.880, 114.717 140.095 L 118.289 132.690 121.144 138.981 C 122.715 142.441, 124 146.929, 124 148.954 C 124 155.015, 121.110 163.004, 115.731 171.812 C 111.737 178.351, 110.560 181.259, 110.213 185.449 C 109.623 192.564, 111.419 197.675, 115.353 200.074 C 123.937 205.308, 136.985 198.130, 136.996 188.167 C 136.998 186.333, 135.650 181.462, 134 177.341 C 132.350 173.220, 131 168.524, 131 166.906 C 131 164.441, 133.599 155.863, 136.500 148.750 C 137.005 147.513, 136.743 147, 135.607 147 C 133.475 147, 133.564 146.420, 136.448 141.498 C 137.795 139.200, 138.671 136.459, 138.396 135.406 C 138.096 134.259, 139.918 129.770, 142.948 124.194 C 145.726 119.080, 148.002 114.582, 148.004 114.198 C 148.006 113.814, 148.932 111.984, 150.062 110.130 L 152.116 106.761 154.515 109.014 C 155.834 110.253, 159.295 111.819, 162.206 112.493 L 167.500 113.719 163.347 114.872 C 160.509 115.660, 158.373 115.712, 156.597 115.037 C 152.457 113.463, 153.494 115.701, 157.960 117.980 C 160.138 119.091, 163.738 120, 165.960 120 C 169.956 120, 170 120.041, 170.033 123.750 C 170.051 125.813, 170.918 129.970, 171.960 132.989 C 173.002 136.008, 173.657 138.677, 173.415 138.919 C 173.173 139.160, 171.406 138.610, 169.487 137.695 C 164.695 135.410, 165.108 136.352, 170.250 139.434 L 174.500 141.981 171.500 142.022 C 168.645 142.062, 168.594 142.135, 170.441 143.532 C 171.509 144.339, 173.451 145, 174.757 145 C 176.063 145, 178.062 145.498, 179.199 146.106 C 181.225 147.191, 181.209 147.261, 178.383 149.673 L 175.500 152.133 179.663 151.569 C 181.952 151.258, 184.539 150.730, 185.413 150.395 C 186.471 149.989, 187 150.341, 187 151.452 C 187 152.531, 187.441 152.845, 188.250 152.344 C 190.126 151.183, 202.327 151.949, 203.668 153.313 C 204.310 153.966, 206.670 158.115, 208.912 162.533 C 213.439 171.455, 215.272 180.925, 216.503 201.750 C 217.280 214.886, 216.427 215.911, 211.274 208.030 C 207.892 202.857, 204 199.774, 204 202.268 C 204 204.720, 215.092 221.425, 220.332 226.866 C 223.174 229.817, 227.780 233.715, 230.566 235.529 C 233.352 237.342, 237.177 241.096, 239.066 243.871 C 245.158 252.822, 250.371 252.772, 256.189 243.706 C 258.059 240.791, 261.476 237.376, 264.440 235.458 C 267.223 233.657, 271.587 230.005, 274.139 227.342 C 278.945 222.325, 289.225 207.016, 290.513 202.958 L 291.248 200.642 288.251 203.071 C 286.603 204.407, 284.028 207.503, 282.530 209.952 C 280.117 213.894, 279.689 214.195, 278.787 212.584 C 277.374 210.059, 279.520 178.980, 281.588 172.015 C 283.913 164.186, 291.881 150.844, 293.897 151.405 C 298.839 152.780, 301.875 153.011, 302.465 152.056 C 302.925 151.312, 303.739 151.325, 305.188 152.101 C 306.736 152.929, 307.442 152.902, 308.005 151.993 C 308.528 151.145, 310.376 150.976, 314.127 151.434 C 319.669 152.110, 319.707 151.632, 314.369 148.411 C 312.864 147.503, 313.804 147.010, 320.032 145.443 C 327.038 143.680, 327.284 143.528, 324 142.995 L 320.500 142.426 324.682 140.227 C 326.982 139.018, 329.146 137.572, 329.491 137.014 C 330.325 135.666, 329.905 135.724, 325.489 137.569 C 321.921 139.060, 321.772 139.047, 322.507 137.319 C 323.991 133.832, 326 125.545, 326 122.912 C 326 120.512, 326.426 120.212, 330.486 119.755 C 332.953 119.476, 336.215 118.405, 337.736 117.374 L 340.500 115.500 334.828 114.994 C 328.626 114.442, 325.747 113, 330.844 113 C 334.078 113, 343 109.372, 343 108.058 C 343 107.660, 340.413 107.502, 337.250 107.706 C 331.643 108.068, 331.576 108.042, 334.550 106.671 C 337.529 105.297, 343 99.684, 343 98 C 343 97.534, 341.539 97.882, 339.753 98.773 C 336.573 100.360, 333.041 100.545, 319.234 99.849 C 313.052 99.538, 312.998 99.510, 315.234 97.789 C 316.480 96.829, 317.801 96.034, 318.168 96.022 C 318.946 95.996, 323 89.650, 323 88.458 C 323 88.014, 321.988 88.592, 320.750 89.743 C 319.512 90.893, 314.571 93.173, 309.768 94.810 C 301.484 97.633, 301.113 97.677, 302.518 95.670 C 305.416 91.534, 303.896 91.940, 295.920 97.434 C 291.476 100.495, 287.663 103, 287.445 103 C 287.227 103, 287.488 101.846, 288.025 100.435 C 289.196 97.355, 289.324 90, 288.206 90 C 287.769 90, 286.163 93.837, 284.635 98.527 C 283.108 103.217, 281.073 107.829, 280.113 108.777 C 278.467 110.402, 272 125.685, 272 127.949 C 272 128.527, 271.422 129, 270.716 129 C 268.970 129, 266.422 124.362, 265.497 119.500 L 264.737 115.500 263.414 118.500 C 261.445 122.963, 261.716 126.038, 264.586 131.796 C 267.591 137.827, 267.473 139.720, 264.231 137.450 C 261.535 135.561, 258 128.975, 258 125.840 C 258 124.213, 257.699 123.901, 256.902 124.698 C 254.939 126.661, 255.651 139.984, 258.068 146.527 C 259.844 151.335, 261.807 154.002, 268.137 160.204 C 272.462 164.441, 276 168.536, 276 169.305 C 276 171.673, 273.855 177, 272.902 177 C 272.406 177, 271.999 175.762, 271.998 174.250 C 271.997 172.066, 270.950 170.787, 266.910 168.033 C 261.069 164.053, 255.757 158.024, 250.728 149.671 L 247.219 143.843 244.757 149.171 C 241.515 156.189, 235.470 163.328, 228.855 167.953 C 224.194 171.212, 223.519 172.106, 223.647 174.849 C 223.922 180.721, 220.801 177.784, 219.522 170.968 C 218.907 167.692, 219.154 167.256, 223.446 164.041 C 234.119 156.043, 240.762 140.062, 238.375 128.125 C 238.031 126.406, 237.469 125.002, 237.125 125.004 C 236.781 125.006, 235.702 126.947, 234.728 129.318 C 233.753 131.689, 231.634 135.175, 230.018 137.065 L 227.081 140.500 227.041 137.864 C 227.018 136.415, 227.672 133.940, 228.494 132.364 C 230.276 128.947, 230.447 122.223, 228.850 118.315 L 227.699 115.500 226.877 120 C 225.635 126.798, 224.950 129.283, 224.455 128.788 C 224.209 128.542, 222.638 124.326, 220.965 119.420 C 216.652 106.774, 216.827 107.112, 216.075 109.968 C 215.516 112.090, 214.915 111.248, 211.791 103.968 C 209.792 99.311, 207.826 94.176, 207.422 92.558 C 206.699 89.665, 206.672 89.654, 205.830 91.930 C 205.331 93.279, 205.385 95.736, 205.960 97.816 C 206.502 99.781, 206.751 101.583, 206.512 101.821 C 206.274 102.060, 203.282 100.176, 199.864 97.636 C 193.687 93.046, 191.083 92.224, 194.428 95.920 C 195.996 97.653, 195.228 97.558, 186.998 94.999 C 181.949 93.430, 176.959 91.368, 175.909 90.418 C 174.525 89.165, 174 89.055, 174 90.016 C 174 90.746, 176.042 93.299, 178.537 95.690 C 183.028 99.993, 183.046 100.036, 180.287 99.928 C 178.754 99.868, 173.823 100.148, 169.329 100.551 C 162.066 101.203, 160.700 101.046, 157.042 99.139 C 153.440 97.261, 153.045 97.212, 153.877 98.747 C 155.038 100.887, 159.778 105.334, 162.500 106.836 C 164.258 107.805, 164.056 107.943, 160.835 107.970 C 156.594 108.005, 142.282 102.796, 138.546 99.857 C 134.908 96.996, 134.612 98.551, 143.339 74.750 C 145.305 69.388, 146.753 65, 146.557 65 C 146.361 65, 143.280 68.938, 139.710 73.750 M 349 66.373 C 349 66.643, 351.175 72.407, 353.833 79.182 C 360.559 96.327, 360.569 96.387, 357.257 99.486 C 355.741 100.905, 352.363 102.832, 349.750 103.768 C 347.137 104.704, 345 105.883, 345 106.389 C 345 106.895, 347.942 112.944, 351.537 119.832 C 355.428 127.287, 358.228 133.961, 358.456 136.323 C 358.666 138.504, 359.774 141.556, 360.919 143.104 C 363.397 146.457, 363.478 147, 361.500 147 C 359.437 147, 359.593 148.110, 362.663 155.280 C 366.263 163.688, 366.287 169.808, 362.747 177.371 C 357.488 188.610, 359.510 196.808, 368.467 200.551 C 378.626 204.795, 388 198.343, 388 187.105 C 388 181.659, 386.825 178.925, 380.005 168.500 C 373.946 159.239, 371.337 152.029, 372.312 147.236 C 372.618 145.731, 374.056 141.825, 375.507 138.556 L 378.146 132.612 383.052 141.900 C 388.305 151.844, 392.693 158.284, 403.853 172.428 C 407.728 177.339, 410.686 181.699, 410.427 182.118 C 409.634 183.400, 399.154 179.903, 389.679 175.194 C 388.414 174.565, 393.832 184.844, 398.029 191.034 C 406.872 204.076, 410.914 213.933, 421.060 247.198 C 424.948 259.944, 428.629 271.302, 429.239 272.437 C 430.298 274.407, 430.389 274.365, 431.276 271.500 C 433.064 265.720, 432.360 245.223, 430.005 234.500 C 427.673 223.886, 422.489 209.367, 418.444 202.124 C 417.100 199.717, 416 197.586, 416 197.387 C 416 197.188, 419.262 197.287, 423.250 197.606 C 428.533 198.028, 430.969 197.821, 432.227 196.843 C 433.797 195.622, 432.906 194.317, 422.433 182.500 C 409.073 167.425, 395.525 149.883, 391.156 142 C 389.479 138.975, 386.697 132.450, 384.974 127.500 C 379.612 112.100, 367.883 89.562, 359.144 77.871 C 352.021 68.341, 349 64.916, 349 66.373 M 182.651 105.657 C 181.268 106.052, 180.929 106.848, 181.306 108.819 C 181.599 110.353, 181.014 113.012, 179.905 115.187 C 176.367 122.121, 177.847 131.099, 183.666 138.015 C 186.991 141.967, 191.544 144, 197.068 144 C 200.464 144, 201.829 143.371, 204.733 140.467 C 208.671 136.529, 208.620 135.433, 204.574 136.972 C 196.174 140.165, 188.622 136.814, 185.440 128.481 C 182.400 120.523, 184.889 113.628, 192.134 109.932 C 195.025 108.457, 195.925 107.525, 195.178 106.778 C 193.996 105.596, 185.520 104.837, 182.651 105.657 M 301.099 106.158 L 297.699 107.135 302.773 109.486 C 309.364 112.540, 311.467 115.794, 311.467 122.939 C 311.467 133.353, 304.489 140.286, 296.244 138.066 C 290.020 136.390, 288.152 133.621, 287.801 125.555 C 287.507 118.792, 287.456 118.674, 285.633 120.503 C 281.810 124.340, 286.235 139.519, 292.053 142.527 C 295.395 144.255, 301.700 144.443, 305.685 142.933 C 315.176 139.337, 319.811 125.786, 315.099 115.410 C 313.791 112.530, 313.525 110.814, 314.200 109.608 C 316.474 105.544, 309.565 103.725, 301.099 106.158 M 200.750 115.080 C 198.740 116.251, 198.401 121.001, 200.200 122.800 C 200.860 123.460, 202.345 124, 203.500 124 C 208.133 124, 209.674 118.286, 205.777 115.557 C 203.193 113.746, 203.061 113.734, 200.750 115.080 M 290.518 115.625 C 288.270 117.873, 289 121.242, 292.050 122.699 C 297.170 125.145, 300.821 122.120, 299.432 116.585 C 298.897 114.454, 298.200 114, 295.463 114 C 293.637 114, 291.412 114.731, 290.518 115.625 M 244.050 164.089 C 242.341 166.448, 240.730 169.306, 240.469 170.439 C 239.434 174.940, 238.437 204.686, 239.227 207.500 C 239.690 209.150, 240.742 213.650, 241.563 217.500 C 246.330 239.830, 249.288 245.399, 250.462 234.250 C 251.697 222.519, 254.170 210.408, 255.950 207.376 C 257.731 204.341, 257.729 203.913, 255.854 192.376 C 254.272 182.643, 254.128 179.647, 255.057 175.771 C 256.062 171.574, 255.961 170.673, 254.157 167.754 C 253.039 165.946, 251.007 163.416, 249.641 162.133 L 247.158 159.800 244.050 164.089 M 112.941 216.622 C 104.718 222.675, 94.060 233.548, 88.899 241.149 C 79.620 254.813, 75.272 268.813, 74.330 288.057 C 73.340 308.276, 75.479 315.640, 79.085 304.428 L 80.669 299.500 81.740 308.500 C 85.618 341.112, 91.820 366.905, 100.089 384.810 C 104.130 393.562, 111.512 405.344, 114.843 408.358 C 116.669 410.011, 117.047 410.027, 119.854 408.575 C 122.725 407.091, 122.970 407.119, 124.347 409.084 C 125.148 410.228, 128.405 416.864, 131.586 423.832 C 138.609 439.214, 143.642 448, 145.431 448 C 146.897 448, 147.965 444.994, 147.986 440.809 C 147.994 439.329, 148.350 437.902, 148.777 437.638 C 149.205 437.373, 152.017 438.743, 155.027 440.681 C 158.037 442.620, 162.863 445.279, 165.750 446.590 C 168.637 447.902, 171 449.574, 171 450.306 C 171 451.038, 170.308 453.969, 169.461 456.818 L 167.923 462 159.912 462 C 154.867 462, 150.862 462.537, 149.095 463.451 C 145.522 465.299, 141.959 473.363, 141.247 481.211 L 140.720 487.027 143.610 485.520 C 145.199 484.691, 148.387 484.010, 150.693 484.006 C 155.127 484, 158 481.538, 158 477.746 C 158 475.541, 160.191 474.580, 163.388 475.383 C 165.671 475.956, 165.790 476.418, 166.183 486.240 C 166.652 497.952, 168.653 503.624, 172.674 504.633 C 177.403 505.820, 181.729 499.015, 184.945 485.333 C 185.613 482.491, 186.977 479.426, 187.976 478.522 C 189.681 476.979, 190.213 477.187, 196.739 481.948 C 203.382 486.795, 205.962 490.085, 206.032 493.797 C 206.104 497.679, 210.838 501, 216.299 501 C 222.057 501, 226.879 495.898, 228.328 488.273 C 229.112 484.143, 227.360 474.626, 224.942 469.886 C 221.866 463.857, 220.496 463, 213.929 463 C 208.271 463, 208 462.886, 208 460.500 C 208 457.481, 209.190 457.380, 216.846 459.750 C 221.640 461.234, 226.606 461.500, 249.500 461.500 C 275.267 461.500, 276.741 461.397, 281.787 459.250 C 284.695 458.012, 287.282 457, 287.537 457 C 287.792 457, 288 458.350, 288 460 C 288 462.827, 287.772 463, 284.051 463 C 280.726 463, 279.687 463.544, 277.477 466.441 C 269.351 477.095, 268.803 494.549, 276.438 499.551 C 278.273 500.754, 280.229 501.099, 283.060 500.719 C 288.238 500.024, 289.738 498.699, 291.082 493.634 C 292.400 488.667, 294.655 486.096, 302.231 480.924 L 307.961 477.011 309.417 479.256 C 310.218 480.490, 311.644 484.650, 312.586 488.500 C 315.475 500.310, 318.806 505.453, 323.161 504.827 C 328.166 504.107, 332.887 491.401, 331.525 482.318 C 330.729 477.009, 332.005 475, 336.173 475 C 338.547 475, 339.366 475.631, 340.493 478.330 C 342.366 482.812, 343.638 483.688, 349.500 484.536 C 352.250 484.934, 355.803 485.922, 357.395 486.731 L 360.290 488.201 359.765 481.665 C 359.114 473.555, 355.946 466.748, 351.561 464.038 C 349.043 462.482, 346.563 462, 341.066 462 C 332.576 462, 330.320 461.011, 328.415 456.452 C 325.627 449.778, 326.224 448.614, 335.250 443.145 C 344.207 437.718, 344.319 437.735, 345.475 444.750 C 345.861 447.087, 346.583 449, 347.082 449 C 349.550 449, 357.350 434.251, 367.931 409.575 L 370.043 404.649 373.455 407.957 C 377.524 411.900, 378.821 411.608, 383.038 405.797 C 393.954 390.759, 406.103 359.467, 410.333 335.500 C 411.109 331.100, 412.661 324.800, 413.782 321.500 C 414.902 318.200, 416.141 312.427, 416.534 308.671 L 417.250 301.842 419.076 305.921 C 422.745 314.117, 424.580 309.781, 424.333 293.500 C 424.025 273.239, 418.768 255.350, 408.641 240.102 C 403.294 232.052, 389.495 217.777, 384 214.611 L 380.721 212.722 383.438 217.111 C 390.056 227.801, 393.389 238.127, 392.812 246.154 L 392.500 250.500 390.258 246.306 C 386.040 238.414, 377.500 232.019, 368.976 230.367 C 365.562 229.705, 365.636 229.826, 373.105 237.097 C 381.143 244.922, 385.447 250.729, 386.542 255.227 L 387.205 257.953 381.853 256.339 C 375.528 254.431, 370 253.100, 370 253.484 C 370 253.635, 371.181 256.338, 372.624 259.490 C 374.276 263.099, 375.426 267.680, 375.729 271.861 L 376.211 278.500 371.701 273.448 C 367.796 269.074, 355.192 259.475, 354.396 260.270 C 354.243 260.424, 355.446 263.238, 357.069 266.525 C 360.524 273.520, 362.978 287.494, 361.380 291.074 C 360.422 293.220, 360.258 293.116, 357.696 288.744 C 355.262 284.591, 347.662 277, 345.937 277 C 345.550 277, 345.918 278.913, 346.753 281.250 C 347.601 283.622, 348.471 290.361, 348.721 296.500 L 349.169 307.500 343.505 301.250 C 340.389 297.813, 337.494 295, 337.072 295 C 336.649 295, 336.726 297.587, 337.243 300.750 C 338.712 309.731, 337.481 333.193, 335.079 342 C 332.657 350.882, 332.504 354.876, 334.409 359.436 C 336.222 363.775, 339.115 364.701, 343.274 362.272 C 346.186 360.571, 350.187 355.798, 351.296 352.702 C 351.532 352.041, 352.018 351.768, 352.375 352.095 C 353.270 352.916, 348.676 370.096, 345.462 377.949 C 336.769 399.187, 325.501 417.011, 311.150 432.223 C 306.325 437.339, 305.151 439.121, 306.311 439.566 C 307.154 439.889, 308.749 439.669, 309.856 439.077 C 313.286 437.241, 315 437.761, 315 440.636 C 315 443.186, 315.147 443.252, 319.515 442.653 C 324.027 442.035, 324.029 442.036, 323.377 444.767 C 322.431 448.724, 322.478 448.686, 316.864 450.033 C 312.343 451.117, 294.412 450.745, 293.208 449.541 C 293.013 449.347, 293.325 447.483, 293.900 445.400 C 294.475 443.317, 294.821 441.487, 294.668 441.334 C 294.515 441.181, 291.025 442.819, 286.913 444.974 C 279.385 448.919, 262.720 455, 259.438 455 C 258.275 455, 259.231 453.785, 262.242 451.439 C 268.476 446.583, 277.674 434.849, 281.313 427.111 C 283.560 422.335, 284.436 418.802, 284.785 413.111 C 285.042 408.925, 284.920 405.813, 284.515 406.195 C 284.109 406.577, 282.338 410.177, 280.580 414.195 C 272.285 433.147, 251.135 460.336, 246.039 458.598 C 242.995 457.559, 231.294 453.770, 220.591 450.357 C 214.592 448.444, 207.930 445.984, 205.787 444.891 L 201.891 442.904 202.538 446.352 L 203.185 449.799 193.834 450.501 C 186.884 451.022, 183.202 450.830, 179.492 449.752 C 174.994 448.446, 174.469 447.991, 174.187 445.152 C 173.855 441.816, 175.518 440.918, 177.800 443.200 C 178.733 444.133, 179 443.689, 179 441.200 C 179 437.666, 179.570 437.475, 185.344 439.078 C 187.458 439.665, 189.441 439.892, 189.750 439.583 C 190.060 439.273, 186.202 434.770, 181.178 429.577 C 170.210 418.239, 160.376 403.583, 153.703 388.628 C 148.987 378.060, 144 361.441, 144 356.294 C 144 354.073, 144.307 354.247, 147.294 358.164 C 153.457 366.243, 159.784 365.833, 162.351 357.189 C 163.718 352.588, 163.654 351.709, 161.316 342.893 C 157.665 329.124, 157.792 308.321, 161.604 295.750 C 162.634 292.352, 159.698 294.066, 153.286 300.606 L 146.810 307.211 147.536 299.356 C 148.325 290.827, 149.779 284.659, 152.415 278.659 C 154.281 274.412, 153.919 274.455, 147.806 279.207 C 145.774 280.787, 142.434 284.424, 140.383 287.290 C 134.675 295.262, 134.744 295.280, 135.201 285.955 C 135.544 278.953, 136.206 276.156, 138.867 270.470 C 140.653 266.654, 142.833 262.737, 143.712 261.766 C 145.804 259.454, 144.842 259.538, 139.710 262.113 C 133.345 265.306, 125.353 271.594, 123.352 274.981 C 120.977 279.001, 119.999 278.787, 120.006 274.250 C 120.014 268.888, 121.534 264.126, 124.965 258.715 L 127.956 254 124.635 254 C 122.808 254, 118.694 254.901, 115.492 256.003 C 112.291 257.104, 109.489 257.823, 109.266 257.599 C 107.475 255.808, 121.543 239.627, 131.500 232.026 L 134.500 229.736 130.500 230.447 C 121.295 232.083, 113.054 237.716, 107.825 245.946 L 105 250.392 105 245.733 C 105 239.763, 107.787 232.375, 113.586 222.973 C 119.045 214.121, 120.216 212, 119.645 212 C 119.411 212, 116.395 214.080, 112.941 216.622 M 101.537 281.429 C 101.242 282.843, 100.746 285.207, 100.435 286.681 C 100.125 288.156, 99.277 297.313, 98.551 307.030 C 97.179 325.403, 96.265 329, 92.965 329 C 90.439 329, 90.444 331.123, 92.996 341.769 C 97.296 359.702, 104.195 365.394, 107.083 353.391 C 107.972 349.695, 106.708 306.775, 105.145 287.581 C 104.494 279.587, 102.597 276.353, 101.537 281.429 M 393.542 280.187 C 392.693 282.696, 387.681 340.550, 387.591 348.878 C 387.491 358.081, 388.491 359.846, 393.143 358.679 C 396.291 357.889, 399.288 352.543, 401.931 343.007 C 404.356 334.256, 404.576 329.435, 402.584 328.671 C 400.600 327.909, 399.199 319.938, 398.010 302.638 C 397.448 294.463, 396.706 286.016, 396.362 283.865 C 395.709 279.777, 394.301 277.941, 393.542 280.187 M 220.036 285 C 220.026 290.502, 222.710 300.483, 225.899 306.800 C 229.099 313.139, 237.398 323, 239.534 323 C 243.108 323, 241.707 318.812, 234.245 307.189 C 232.236 304.060, 228.219 297, 225.318 291.500 C 220.521 282.406, 220.042 281.817, 220.036 285 M 275.207 288.551 C 273.965 292.110, 269.585 300.853, 265.474 307.979 C 261.363 315.106, 258 321.401, 258 321.969 C 258 325.281, 265.534 319.991, 269.942 313.584 C 274.010 307.672, 276.776 300.328, 278.066 292.015 C 279.595 282.155, 278.080 280.319, 275.207 288.551 M 319.447 319.099 C 319.943 340.992, 321.878 349.206, 326.018 346.990 C 329.039 345.373, 331.500 337.299, 331.500 329 C 331.500 321.581, 331.442 321.414, 326.102 313.500 C 323.133 309.100, 320.343 305.095, 319.901 304.599 C 319.460 304.104, 319.256 310.629, 319.447 319.099 M 170.500 313.246 L 164.500 321.426 164.500 329.963 C 164.500 338.954, 166.971 348, 169.428 348 C 171.453 348, 174.099 344.454, 175.157 340.323 C 176.205 336.233, 177.837 304.974, 177 305.032 C 176.725 305.050, 173.800 308.747, 170.500 313.246 M 312.482 321.036 C 308.135 329.613, 296.086 340.950, 289.595 342.570 C 286.886 343.246, 286.736 343.133, 287.380 340.897 C 289.005 335.252, 290.080 326.251, 289.499 323.148 C 288.690 318.829, 288.184 319.450, 286.448 326.891 C 285.666 330.243, 283.671 335.976, 282.013 339.631 C 280.356 343.286, 279 346.889, 279 347.638 C 279 349.402, 281.897 349.390, 283.921 347.618 C 285.996 345.802, 290 344.609, 290 345.807 C 290 346.325, 289.374 348.523, 288.608 350.693 C 287.843 352.862, 286.675 358.881, 286.012 364.068 C 285.349 369.256, 283.924 376.151, 282.845 379.392 C 281.534 383.330, 281.216 385.616, 281.886 386.286 C 285.193 389.593, 299.213 376.212, 304.412 364.786 C 308.374 356.078, 309.751 350.747, 310.587 340.885 C 310.931 336.815, 312.122 331.551, 313.239 329.159 C 315.227 324.903, 316.856 316, 315.647 316 C 315.310 316, 313.885 318.266, 312.482 321.036 M 180.997 319.750 C 180.995 320.712, 181.680 326.225, 182.519 332 C 183.358 337.775, 184.495 345.650, 185.047 349.500 C 186.912 362.518, 195.845 376.770, 206.972 384.481 C 212.752 388.486, 213.831 387.019, 211.125 378.839 C 209.971 375.353, 208.543 368.900, 207.952 364.500 C 207.361 360.100, 206.272 354.137, 205.533 351.250 L 204.190 346 206.960 346 C 208.484 346, 210.874 346.900, 212.273 348 C 214.622 349.848, 218 350.713, 218 349.467 C 218 349.173, 216.923 346.808, 215.606 344.210 C 214.290 341.611, 211.978 335.440, 210.470 330.495 C 208.040 322.527, 207.623 321.788, 206.804 324 C 205.866 326.538, 206.425 333.703, 208.049 339.944 C 208.542 341.838, 208.782 343.551, 208.583 343.751 C 208.383 343.950, 206.144 343.138, 203.607 341.945 C 197.801 339.216, 188.670 330.158, 184.783 323.270 C 181.573 317.582, 181.002 317.051, 180.997 319.750 M 226.488 325.377 C 222.914 330.833, 222.045 339.579, 224.418 346.225 C 226.339 351.609, 232.805 359.673, 237.921 363.067 C 243.009 366.442, 246.598 366.999, 245.542 364.250 C 244.498 361.531, 242.282 352.163, 241.002 345.054 C 239.821 338.502, 237.718 333.553, 233.231 326.772 C 230.339 322.402, 228.665 322.056, 226.488 325.377 M 262.615 328.843 C 258.201 334.857, 256.231 340.203, 254.897 349.791 C 254.339 353.802, 253.258 358.853, 252.495 361.016 C 250.686 366.142, 251.935 366.814, 257.364 363.633 C 270.512 355.927, 277.007 339.750, 271.469 328.500 C 268.726 322.928, 266.906 322.998, 262.615 328.843 M 221.273 360.710 C 218.512 364.930, 218.961 373.357, 222.314 380.209 C 226.479 388.723, 240.935 401.399, 243.525 398.808 C 244.459 397.874, 237.731 373.258, 235.491 369.416 C 233.061 365.248, 225.779 358, 224.020 358 C 223.484 358, 222.248 359.219, 221.273 360.710 M 264.953 363.750 C 259.540 369.848, 258.475 372.480, 256.093 385.653 C 254.502 394.450, 254.373 396.747, 255.407 397.805 C 257.919 400.377, 270.809 388.193, 274.993 379.292 C 278.172 372.528, 277.445 362.333, 273.600 359.765 C 271.216 358.174, 268.995 359.197, 264.953 363.750 M 209.519 417 C 211.837 426.303, 221.807 440.707, 229.676 446.121 L 234.451 449.407 228.554 440.953 C 222.452 432.207, 212.477 418.653, 210.198 416.010 C 209.089 414.723, 208.988 414.869, 209.519 417 M 212.252 475.844 C 211.665 476.207, 210.879 478.129, 210.506 480.114 L 209.829 483.723 215.165 483.233 C 218.099 482.963, 220.695 482.569, 220.933 482.355 C 221.171 482.142, 220.482 480.784, 219.402 479.337 C 217.240 476.441, 213.915 474.817, 212.252 475.844 M 280.073 478.635 C 278.933 480.084, 278 481.659, 278 482.135 C 278 482.611, 280.250 483, 283 483 L 288 483 288 479.500 C 288 476.297, 287.752 476, 285.073 476 C 283.101 476, 281.468 476.860, 280.073 478.635" stroke="none" fill="black" fill-rule="evenodd"/>
</svg>